<?xml version="1.0"?>
<svg xmlns="http://www.w3.org/2000/svg" xmlns:xlink="http://www.w3.org/1999/xlink" version="1.1" viewBox="0 0 192 192" width="80px" height="80px"><g fill="none" fill-rule="nonzero" stroke="none" stroke-width="1" stroke-linecap="butt" stroke-linejoin="miter" stroke-miterlimit="10" stroke-dasharray="" stroke-dashoffset="0" font-family="none" font-weight="none" font-size="none" text-anchor="none" style="mix-blend-mode: normal"><path d="M0,192v-192h192v192z" fill="none"/><g id="Layer_1"><g><rect x="1.5" y="18.5" transform="scale(4.8,4.8)" width="37" height="3" fill="#ffffff"/><g fill="#000000"><path d="M182.4,91.2v9.6h-172.8v-9.6h172.8M187.2,86.4h-182.4v19.2h182.4v-19.2z"/></g></g><g><rect x="1.5" y="8.5" transform="scale(4.8,4.8)" width="37" height="3" fill="#ffffff"/><g fill="#000000"><path d="M182.4,43.2v9.6h-172.8v-9.6h172.8M187.2,38.4h-182.4v19.2h182.4v-19.2z"/></g></g><g><rect x="1.5" y="28.5" transform="scale(4.8,4.8)" width="37" height="3" fill="#ffffff"/><g fill="#000000"><path d="M182.4,139.2v9.6h-172.8v-9.6h172.8M187.2,134.4h-182.4v19.2h182.4v-19.2z"/></g></g></g></g></svg>
